<?xml version="1.0" encoding="utf-8" standalone="no"?>
<!DOCTYPE svg PUBLIC "-//W3C//DTD SVG 1.1//EN"
  "http://www.w3.org/Graphics/SVG/1.1/DTD/svg11.dtd">
<svg xmlns:xlink="http://www.w3.org/1999/xlink" width="412.844219pt" height="314.958281pt" viewBox="0 0 412.844219 314.958281" xmlns="http://www.w3.org/2000/svg" version="1.1">
 <metadata>
  <rdf:RDF xmlns:dc="http://purl.org/dc/elements/1.1/" xmlns:cc="http://creativecommons.org/ns#" xmlns:rdf="http://www.w3.org/1999/02/22-rdf-syntax-ns#">
   <cc:Work>
    <dc:type rdf:resource="http://purl.org/dc/dcmitype/StillImage"/>
    <dc:date>2026-01-12T11:32:58.369443</dc:date>
    <dc:format>image/svg+xml</dc:format>
    <dc:creator>
     <cc:Agent>
      <dc:title>Matplotlib v3.9.2, https://matplotlib.org/</dc:title>
     </cc:Agent>
    </dc:creator>
   </cc:Work>
  </rdf:RDF>
 </metadata>
 <defs>
  <style type="text/css">*{stroke-linejoin: round; stroke-linecap: butt}</style>
 </defs>
 <g id="figure_1">
  <g id="patch_1">
   <path d="M 0 314.958281 
L 412.844219 314.958281 
L 412.844219 0 
L 0 0 
z
" style="fill: #ffffff"/>
  </g>
  <g id="axes_1">
   <g id="patch_2">
    <path d="M 48.426094 227.678281 
L 383.226094 227.678281 
L 383.226094 30.558281 
L 48.426094 30.558281 
z
" style="fill: #ffffff"/>
   </g>
   <g id="matplotlib.axis_1">
    <g id="xtick_1">
     <g id="line2d_1">
      <path d="M 76.326094 227.678281 
L 76.326094 30.558281 
" clip-path="url(#p860a6e927f)" style="fill: none; stroke-dasharray: 5.55,2.4; stroke-dashoffset: 0; stroke: #b0b0b0; stroke-opacity: 0.3; stroke-width: 1.5"/>
     </g>
     <g id="line2d_2">
      <defs>
       <path id="m356b844190" d="M 0 0 
L 0 4 
" style="stroke: #000000"/>
      </defs>
      <g>
       <use xlink:href="#m356b844190" x="76.326094" y="227.678281" style="stroke: #000000"/>
      </g>
     </g>
     <g id="text_1">
      <!-- 1 -->
      <g transform="translate(73.462969 242.016875) scale(0.09 -0.09)">
       <defs>
        <path id="DejaVuSans-31" d="M 794 531 
L 1825 531 
L 1825 4091 
L 703 3866 
L 703 4441 
L 1819 4666 
L 2450 4666 
L 2450 531 
L 3481 531 
L 3481 0 
L 794 0 
L 794 531 
z
" transform="scale(0.015625)"/>
       </defs>
       <use xlink:href="#DejaVuSans-31"/>
      </g>
     </g>
    </g>
    <g id="xtick_2">
     <g id="line2d_3">
      <path d="M 132.126094 227.678281 
L 132.126094 30.558281 
" clip-path="url(#p860a6e927f)" style="fill: none; stroke-dasharray: 5.55,2.4; stroke-dashoffset: 0; stroke: #b0b0b0; stroke-opacity: 0.3; stroke-width: 1.5"/>
     </g>
     <g id="line2d_4">
      <g>
       <use xlink:href="#m356b844190" x="132.126094" y="227.678281" style="stroke: #000000"/>
      </g>
     </g>
     <g id="text_2">
      <!-- 2 -->
      <g transform="translate(129.262969 242.016875) scale(0.09 -0.09)">
       <defs>
        <path id="DejaVuSans-32" d="M 1228 531 
L 3431 531 
L 3431 0 
L 469 0 
L 469 531 
Q 828 903 1448 1529 
Q 2069 2156 2228 2338 
Q 2531 2678 2651 2914 
Q 2772 3150 2772 3378 
Q 2772 3750 2511 3984 
Q 2250 4219 1831 4219 
Q 1534 4219 1204 4116 
Q 875 4013 500 3803 
L 500 4441 
Q 881 4594 1212 4672 
Q 1544 4750 1819 4750 
Q 2544 4750 2975 4387 
Q 3406 4025 3406 3419 
Q 3406 3131 3298 2873 
Q 3191 2616 2906 2266 
Q 2828 2175 2409 1742 
Q 1991 1309 1228 531 
z
" transform="scale(0.015625)"/>
       </defs>
       <use xlink:href="#DejaVuSans-32"/>
      </g>
     </g>
    </g>
    <g id="xtick_3">
     <g id="line2d_5">
      <path d="M 187.926094 227.678281 
L 187.926094 30.558281 
" clip-path="url(#p860a6e927f)" style="fill: none; stroke-dasharray: 5.55,2.4; stroke-dashoffset: 0; stroke: #b0b0b0; stroke-opacity: 0.3; stroke-width: 1.5"/>
     </g>
     <g id="line2d_6">
      <g>
       <use xlink:href="#m356b844190" x="187.926094" y="227.678281" style="stroke: #000000"/>
      </g>
     </g>
     <g id="text_3">
      <!-- 3 -->
      <g transform="translate(185.062969 242.016875) scale(0.09 -0.09)">
       <defs>
        <path id="DejaVuSans-33" d="M 2597 2516 
Q 3050 2419 3304 2112 
Q 3559 1806 3559 1356 
Q 3559 666 3084 287 
Q 2609 -91 1734 -91 
Q 1441 -91 1130 -33 
Q 819 25 488 141 
L 488 750 
Q 750 597 1062 519 
Q 1375 441 1716 441 
Q 2309 441 2620 675 
Q 2931 909 2931 1356 
Q 2931 1769 2642 2001 
Q 2353 2234 1838 2234 
L 1294 2234 
L 1294 2753 
L 1863 2753 
Q 2328 2753 2575 2939 
Q 2822 3125 2822 3475 
Q 2822 3834 2567 4026 
Q 2313 4219 1838 4219 
Q 1578 4219 1281 4162 
Q 984 4106 628 3988 
L 628 4550 
Q 988 4650 1302 4700 
Q 1616 4750 1894 4750 
Q 2613 4750 3031 4423 
Q 3450 4097 3450 3541 
Q 3450 3153 3228 2886 
Q 3006 2619 2597 2516 
z
" transform="scale(0.015625)"/>
       </defs>
       <use xlink:href="#DejaVuSans-33"/>
      </g>
     </g>
    </g>
    <g id="xtick_4">
     <g id="line2d_7">
      <path d="M 243.726094 227.678281 
L 243.726094 30.558281 
" clip-path="url(#p860a6e927f)" style="fill: none; stroke-dasharray: 5.55,2.4; stroke-dashoffset: 0; stroke: #b0b0b0; stroke-opacity: 0.3; stroke-width: 1.5"/>
     </g>
     <g id="line2d_8">
      <g>
       <use xlink:href="#m356b844190" x="243.726094" y="227.678281" style="stroke: #000000"/>
      </g>
     </g>
     <g id="text_4">
      <!-- 4 -->
      <g transform="translate(240.862969 242.016875) scale(0.09 -0.09)">
       <defs>
        <path id="DejaVuSans-34" d="M 2419 4116 
L 825 1625 
L 2419 1625 
L 2419 4116 
z
M 2253 4666 
L 3047 4666 
L 3047 1625 
L 3713 1625 
L 3713 1100 
L 3047 1100 
L 3047 0 
L 2419 0 
L 2419 1100 
L 313 1100 
L 313 1709 
L 2253 4666 
z
" transform="scale(0.015625)"/>
       </defs>
       <use xlink:href="#DejaVuSans-34"/>
      </g>
     </g>
    </g>
    <g id="xtick_5">
     <g id="line2d_9">
      <path d="M 299.526094 227.678281 
L 299.526094 30.558281 
" clip-path="url(#p860a6e927f)" style="fill: none; stroke-dasharray: 5.55,2.4; stroke-dashoffset: 0; stroke: #b0b0b0; stroke-opacity: 0.3; stroke-width: 1.5"/>
     </g>
     <g id="line2d_10">
      <g>
       <use xlink:href="#m356b844190" x="299.526094" y="227.678281" style="stroke: #000000"/>
      </g>
     </g>
     <g id="text_5">
      <!-- 5 -->
      <g transform="translate(296.662969 242.016875) scale(0.09 -0.09)">
       <defs>
        <path id="DejaVuSans-35" d="M 691 4666 
L 3169 4666 
L 3169 4134 
L 1269 4134 
L 1269 2991 
Q 1406 3038 1543 3061 
Q 1681 3084 1819 3084 
Q 2600 3084 3056 2656 
Q 3513 2228 3513 1497 
Q 3513 744 3044 326 
Q 2575 -91 1722 -91 
Q 1428 -91 1123 -41 
Q 819 9 494 109 
L 494 744 
Q 775 591 1075 516 
Q 1375 441 1709 441 
Q 2250 441 2565 725 
Q 2881 1009 2881 1497 
Q 2881 1984 2565 2268 
Q 2250 2553 1709 2553 
Q 1456 2553 1204 2497 
Q 953 2441 691 2322 
L 691 4666 
z
" transform="scale(0.015625)"/>
       </defs>
       <use xlink:href="#DejaVuSans-35"/>
      </g>
     </g>
    </g>
    <g id="xtick_6">
     <g id="line2d_11">
      <path d="M 355.326094 227.678281 
L 355.326094 30.558281 
" clip-path="url(#p860a6e927f)" style="fill: none; stroke-dasharray: 5.55,2.4; stroke-dashoffset: 0; stroke: #b0b0b0; stroke-opacity: 0.3; stroke-width: 1.5"/>
     </g>
     <g id="line2d_12">
      <g>
       <use xlink:href="#m356b844190" x="355.326094" y="227.678281" style="stroke: #000000"/>
      </g>
     </g>
     <g id="text_6">
      <!-- 6 -->
      <g transform="translate(352.462969 242.016875) scale(0.09 -0.09)">
       <defs>
        <path id="DejaVuSans-36" d="M 2113 2584 
Q 1688 2584 1439 2293 
Q 1191 2003 1191 1497 
Q 1191 994 1439 701 
Q 1688 409 2113 409 
Q 2538 409 2786 701 
Q 3034 994 3034 1497 
Q 3034 2003 2786 2293 
Q 2538 2584 2113 2584 
z
M 3366 4563 
L 3366 3988 
Q 3128 4100 2886 4159 
Q 2644 4219 2406 4219 
Q 1781 4219 1451 3797 
Q 1122 3375 1075 2522 
Q 1259 2794 1537 2939 
Q 1816 3084 2150 3084 
Q 2853 3084 3261 2657 
Q 3669 2231 3669 1497 
Q 3669 778 3244 343 
Q 2819 -91 2113 -91 
Q 1303 -91 875 529 
Q 447 1150 447 2328 
Q 447 3434 972 4092 
Q 1497 4750 2381 4750 
Q 2619 4750 2861 4703 
Q 3103 4656 3366 4563 
z
" transform="scale(0.015625)"/>
       </defs>
       <use xlink:href="#DejaVuSans-36"/>
      </g>
     </g>
    </g>
    <g id="text_7">
     <!-- Timepoint -->
     <g transform="translate(184.581797 256.246875) scale(0.11 -0.11)">
      <defs>
       <path id="DejaVuSans-Bold-54" d="M 31 4666 
L 4331 4666 
L 4331 3756 
L 2784 3756 
L 2784 0 
L 1581 0 
L 1581 3756 
L 31 3756 
L 31 4666 
z
" transform="scale(0.015625)"/>
       <path id="DejaVuSans-Bold-69" d="M 538 3500 
L 1656 3500 
L 1656 0 
L 538 0 
L 538 3500 
z
M 538 4863 
L 1656 4863 
L 1656 3950 
L 538 3950 
L 538 4863 
z
" transform="scale(0.015625)"/>
       <path id="DejaVuSans-Bold-6d" d="M 3781 2919 
Q 3994 3244 4286 3414 
Q 4578 3584 4928 3584 
Q 5531 3584 5847 3212 
Q 6163 2841 6163 2131 
L 6163 0 
L 5038 0 
L 5038 1825 
Q 5041 1866 5042 1909 
Q 5044 1953 5044 2034 
Q 5044 2406 4934 2573 
Q 4825 2741 4581 2741 
Q 4263 2741 4089 2478 
Q 3916 2216 3909 1719 
L 3909 0 
L 2784 0 
L 2784 1825 
Q 2784 2406 2684 2573 
Q 2584 2741 2328 2741 
Q 2006 2741 1831 2477 
Q 1656 2213 1656 1722 
L 1656 0 
L 531 0 
L 531 3500 
L 1656 3500 
L 1656 2988 
Q 1863 3284 2130 3434 
Q 2397 3584 2719 3584 
Q 3081 3584 3359 3409 
Q 3638 3234 3781 2919 
z
" transform="scale(0.015625)"/>
       <path id="DejaVuSans-Bold-65" d="M 4031 1759 
L 4031 1441 
L 1416 1441 
Q 1456 1047 1700 850 
Q 1944 653 2381 653 
Q 2734 653 3104 758 
Q 3475 863 3866 1075 
L 3866 213 
Q 3469 63 3072 -14 
Q 2675 -91 2278 -91 
Q 1328 -91 801 392 
Q 275 875 275 1747 
Q 275 2603 792 3093 
Q 1309 3584 2216 3584 
Q 3041 3584 3536 3087 
Q 4031 2591 4031 1759 
z
M 2881 2131 
Q 2881 2450 2695 2645 
Q 2509 2841 2209 2841 
Q 1884 2841 1681 2658 
Q 1478 2475 1428 2131 
L 2881 2131 
z
" transform="scale(0.015625)"/>
       <path id="DejaVuSans-Bold-70" d="M 1656 506 
L 1656 -1331 
L 538 -1331 
L 538 3500 
L 1656 3500 
L 1656 2988 
Q 1888 3294 2169 3439 
Q 2450 3584 2816 3584 
Q 3463 3584 3878 3070 
Q 4294 2556 4294 1747 
Q 4294 938 3878 423 
Q 3463 -91 2816 -91 
Q 2450 -91 2169 54 
Q 1888 200 1656 506 
z
M 2400 2772 
Q 2041 2772 1848 2508 
Q 1656 2244 1656 1747 
Q 1656 1250 1848 986 
Q 2041 722 2400 722 
Q 2759 722 2948 984 
Q 3138 1247 3138 1747 
Q 3138 2247 2948 2509 
Q 2759 2772 2400 2772 
z
" transform="scale(0.015625)"/>
       <path id="DejaVuSans-Bold-6f" d="M 2203 2784 
Q 1831 2784 1636 2517 
Q 1441 2250 1441 1747 
Q 1441 1244 1636 976 
Q 1831 709 2203 709 
Q 2569 709 2762 976 
Q 2956 1244 2956 1747 
Q 2956 2250 2762 2517 
Q 2569 2784 2203 2784 
z
M 2203 3584 
Q 3106 3584 3614 3096 
Q 4122 2609 4122 1747 
Q 4122 884 3614 396 
Q 3106 -91 2203 -91 
Q 1297 -91 786 396 
Q 275 884 275 1747 
Q 275 2609 786 3096 
Q 1297 3584 2203 3584 
z
" transform="scale(0.015625)"/>
       <path id="DejaVuSans-Bold-6e" d="M 4056 2131 
L 4056 0 
L 2931 0 
L 2931 347 
L 2931 1631 
Q 2931 2084 2911 2256 
Q 2891 2428 2841 2509 
Q 2775 2619 2662 2680 
Q 2550 2741 2406 2741 
Q 2056 2741 1856 2470 
Q 1656 2200 1656 1722 
L 1656 0 
L 538 0 
L 538 3500 
L 1656 3500 
L 1656 2988 
Q 1909 3294 2193 3439 
Q 2478 3584 2822 3584 
Q 3428 3584 3742 3212 
Q 4056 2841 4056 2131 
z
" transform="scale(0.015625)"/>
       <path id="DejaVuSans-Bold-74" d="M 1759 4494 
L 1759 3500 
L 2913 3500 
L 2913 2700 
L 1759 2700 
L 1759 1216 
Q 1759 972 1856 886 
Q 1953 800 2241 800 
L 2816 800 
L 2816 0 
L 1856 0 
Q 1194 0 917 276 
Q 641 553 641 1216 
L 641 2700 
L 84 2700 
L 84 3500 
L 641 3500 
L 641 4494 
L 1759 4494 
z
" transform="scale(0.015625)"/>
      </defs>
      <use xlink:href="#DejaVuSans-Bold-54"/>
      <use xlink:href="#DejaVuSans-Bold-69" x="68.212891"/>
      <use xlink:href="#DejaVuSans-Bold-6d" x="102.490234"/>
      <use xlink:href="#DejaVuSans-Bold-65" x="206.689453"/>
      <use xlink:href="#DejaVuSans-Bold-70" x="274.511719"/>
      <use xlink:href="#DejaVuSans-Bold-6f" x="346.09375"/>
      <use xlink:href="#DejaVuSans-Bold-69" x="414.794922"/>
      <use xlink:href="#DejaVuSans-Bold-6e" x="449.072266"/>
      <use xlink:href="#DejaVuSans-Bold-74" x="520.263672"/>
     </g>
    </g>
   </g>
   <g id="matplotlib.axis_2">
    <g id="ytick_1">
     <g id="line2d_13">
      <path d="M 48.426094 203.038281 
L 383.226094 203.038281 
" clip-path="url(#p860a6e927f)" style="fill: none; stroke-dasharray: 5.55,2.4; stroke-dashoffset: 0; stroke: #b0b0b0; stroke-opacity: 0.3; stroke-width: 1.5"/>
     </g>
     <g id="line2d_14">
      <defs>
       <path id="mbd3aa31748" d="M 0 0 
L -4 0 
" style="stroke: #000000"/>
      </defs>
      <g>
       <use xlink:href="#mbd3aa31748" x="48.426094" y="203.038281" style="stroke: #000000"/>
      </g>
     </g>
     <g id="text_8">
      <!-- −60 -->
      <g transform="translate(21.931875 206.457578) scale(0.09 -0.09)">
       <defs>
        <path id="DejaVuSans-2212" d="M 678 2272 
L 4684 2272 
L 4684 1741 
L 678 1741 
L 678 2272 
z
" transform="scale(0.015625)"/>
        <path id="DejaVuSans-30" d="M 2034 4250 
Q 1547 4250 1301 3770 
Q 1056 3291 1056 2328 
Q 1056 1369 1301 889 
Q 1547 409 2034 409 
Q 2525 409 2770 889 
Q 3016 1369 3016 2328 
Q 3016 3291 2770 3770 
Q 2525 4250 2034 4250 
z
M 2034 4750 
Q 2819 4750 3233 4129 
Q 3647 3509 3647 2328 
Q 3647 1150 3233 529 
Q 2819 -91 2034 -91 
Q 1250 -91 836 529 
Q 422 1150 422 2328 
Q 422 3509 836 4129 
Q 1250 4750 2034 4750 
z
" transform="scale(0.015625)"/>
       </defs>
       <use xlink:href="#DejaVuSans-2212"/>
       <use xlink:href="#DejaVuSans-36" x="83.789062"/>
       <use xlink:href="#DejaVuSans-30" x="147.412109"/>
      </g>
     </g>
    </g>
    <g id="ytick_2">
     <g id="line2d_15">
      <path d="M 48.426094 177.029392 
L 383.226094 177.029392 
" clip-path="url(#p860a6e927f)" style="fill: none; stroke-dasharray: 5.55,2.4; stroke-dashoffset: 0; stroke: #b0b0b0; stroke-opacity: 0.3; stroke-width: 1.5"/>
     </g>
     <g id="line2d_16">
      <g>
       <use xlink:href="#mbd3aa31748" x="48.426094" y="177.029392" style="stroke: #000000"/>
      </g>
     </g>
     <g id="text_9">
      <!-- −50 -->
      <g transform="translate(21.931875 180.448689) scale(0.09 -0.09)">
       <use xlink:href="#DejaVuSans-2212"/>
       <use xlink:href="#DejaVuSans-35" x="83.789062"/>
       <use xlink:href="#DejaVuSans-30" x="147.412109"/>
      </g>
     </g>
    </g>
    <g id="ytick_3">
     <g id="line2d_17">
      <path d="M 48.426094 151.020503 
L 383.226094 151.020503 
" clip-path="url(#p860a6e927f)" style="fill: none; stroke-dasharray: 5.55,2.4; stroke-dashoffset: 0; stroke: #b0b0b0; stroke-opacity: 0.3; stroke-width: 1.5"/>
     </g>
     <g id="line2d_18">
      <g>
       <use xlink:href="#mbd3aa31748" x="48.426094" y="151.020503" style="stroke: #000000"/>
      </g>
     </g>
     <g id="text_10">
      <!-- −40 -->
      <g transform="translate(21.931875 154.4398) scale(0.09 -0.09)">
       <use xlink:href="#DejaVuSans-2212"/>
       <use xlink:href="#DejaVuSans-34" x="83.789062"/>
       <use xlink:href="#DejaVuSans-30" x="147.412109"/>
      </g>
     </g>
    </g>
    <g id="ytick_4">
     <g id="line2d_19">
      <path d="M 48.426094 125.011615 
L 383.226094 125.011615 
" clip-path="url(#p860a6e927f)" style="fill: none; stroke-dasharray: 5.55,2.4; stroke-dashoffset: 0; stroke: #b0b0b0; stroke-opacity: 0.3; stroke-width: 1.5"/>
     </g>
     <g id="line2d_20">
      <g>
       <use xlink:href="#mbd3aa31748" x="48.426094" y="125.011615" style="stroke: #000000"/>
      </g>
     </g>
     <g id="text_11">
      <!-- −30 -->
      <g transform="translate(21.931875 128.430911) scale(0.09 -0.09)">
       <use xlink:href="#DejaVuSans-2212"/>
       <use xlink:href="#DejaVuSans-33" x="83.789062"/>
       <use xlink:href="#DejaVuSans-30" x="147.412109"/>
      </g>
     </g>
    </g>
    <g id="ytick_5">
     <g id="line2d_21">
      <path d="M 48.426094 99.002726 
L 383.226094 99.002726 
" clip-path="url(#p860a6e927f)" style="fill: none; stroke-dasharray: 5.55,2.4; stroke-dashoffset: 0; stroke: #b0b0b0; stroke-opacity: 0.3; stroke-width: 1.5"/>
     </g>
     <g id="line2d_22">
      <g>
       <use xlink:href="#mbd3aa31748" x="48.426094" y="99.002726" style="stroke: #000000"/>
      </g>
     </g>
     <g id="text_12">
      <!-- −20 -->
      <g transform="translate(21.931875 102.422023) scale(0.09 -0.09)">
       <use xlink:href="#DejaVuSans-2212"/>
       <use xlink:href="#DejaVuSans-32" x="83.789062"/>
       <use xlink:href="#DejaVuSans-30" x="147.412109"/>
      </g>
     </g>
    </g>
    <g id="ytick_6">
     <g id="line2d_23">
      <path d="M 48.426094 72.993837 
L 383.226094 72.993837 
" clip-path="url(#p860a6e927f)" style="fill: none; stroke-dasharray: 5.55,2.4; stroke-dashoffset: 0; stroke: #b0b0b0; stroke-opacity: 0.3; stroke-width: 1.5"/>
     </g>
     <g id="line2d_24">
      <g>
       <use xlink:href="#mbd3aa31748" x="48.426094" y="72.993837" style="stroke: #000000"/>
      </g>
     </g>
     <g id="text_13">
      <!-- −10 -->
      <g transform="translate(21.931875 76.413134) scale(0.09 -0.09)">
       <use xlink:href="#DejaVuSans-2212"/>
       <use xlink:href="#DejaVuSans-31" x="83.789062"/>
       <use xlink:href="#DejaVuSans-30" x="147.412109"/>
      </g>
     </g>
    </g>
    <g id="ytick_7">
     <g id="line2d_25">
      <path d="M 48.426094 46.984948 
L 383.226094 46.984948 
" clip-path="url(#p860a6e927f)" style="fill: none; stroke-dasharray: 5.55,2.4; stroke-dashoffset: 0; stroke: #b0b0b0; stroke-opacity: 0.3; stroke-width: 1.5"/>
     </g>
     <g id="line2d_26">
      <g>
       <use xlink:href="#mbd3aa31748" x="48.426094" y="46.984948" style="stroke: #000000"/>
      </g>
     </g>
     <g id="text_14">
      <!-- 0 -->
      <g transform="translate(35.199844 50.404245) scale(0.09 -0.09)">
       <use xlink:href="#DejaVuSans-30"/>
      </g>
     </g>
    </g>
    <g id="text_15">
     <!-- Change from Baseline (%) -->
     <g transform="translate(15.558281 209.585859) rotate(-90) scale(0.11 -0.11)">
      <defs>
       <path id="DejaVuSans-Bold-43" d="M 4288 256 
Q 3956 84 3597 -3 
Q 3238 -91 2847 -91 
Q 1681 -91 1000 561 
Q 319 1213 319 2328 
Q 319 3447 1000 4098 
Q 1681 4750 2847 4750 
Q 3238 4750 3597 4662 
Q 3956 4575 4288 4403 
L 4288 3438 
Q 3953 3666 3628 3772 
Q 3303 3878 2944 3878 
Q 2300 3878 1931 3465 
Q 1563 3053 1563 2328 
Q 1563 1606 1931 1193 
Q 2300 781 2944 781 
Q 3303 781 3628 887 
Q 3953 994 4288 1222 
L 4288 256 
z
" transform="scale(0.015625)"/>
       <path id="DejaVuSans-Bold-68" d="M 4056 2131 
L 4056 0 
L 2931 0 
L 2931 347 
L 2931 1625 
Q 2931 2084 2911 2256 
Q 2891 2428 2841 2509 
Q 2775 2619 2662 2680 
Q 2550 2741 2406 2741 
Q 2056 2741 1856 2470 
Q 1656 2200 1656 1722 
L 1656 0 
L 538 0 
L 538 4863 
L 1656 4863 
L 1656 2988 
Q 1909 3294 2193 3439 
Q 2478 3584 2822 3584 
Q 3428 3584 3742 3212 
Q 4056 2841 4056 2131 
z
" transform="scale(0.015625)"/>
       <path id="DejaVuSans-Bold-61" d="M 2106 1575 
Q 1756 1575 1579 1456 
Q 1403 1338 1403 1106 
Q 1403 894 1545 773 
Q 1688 653 1941 653 
Q 2256 653 2472 879 
Q 2688 1106 2688 1447 
L 2688 1575 
L 2106 1575 
z
M 3816 1997 
L 3816 0 
L 2688 0 
L 2688 519 
Q 2463 200 2181 54 
Q 1900 -91 1497 -91 
Q 953 -91 614 226 
Q 275 544 275 1050 
Q 275 1666 698 1953 
Q 1122 2241 2028 2241 
L 2688 2241 
L 2688 2328 
Q 2688 2594 2478 2717 
Q 2269 2841 1825 2841 
Q 1466 2841 1156 2769 
Q 847 2697 581 2553 
L 581 3406 
Q 941 3494 1303 3539 
Q 1666 3584 2028 3584 
Q 2975 3584 3395 3211 
Q 3816 2838 3816 1997 
z
" transform="scale(0.015625)"/>
       <path id="DejaVuSans-Bold-67" d="M 2919 594 
Q 2688 288 2409 144 
Q 2131 0 1766 0 
Q 1125 0 706 504 
Q 288 1009 288 1791 
Q 288 2575 706 3076 
Q 1125 3578 1766 3578 
Q 2131 3578 2409 3434 
Q 2688 3291 2919 2981 
L 2919 3500 
L 4044 3500 
L 4044 353 
Q 4044 -491 3511 -936 
Q 2978 -1381 1966 -1381 
Q 1638 -1381 1331 -1331 
Q 1025 -1281 716 -1178 
L 716 -306 
Q 1009 -475 1290 -558 
Q 1572 -641 1856 -641 
Q 2406 -641 2662 -400 
Q 2919 -159 2919 353 
L 2919 594 
z
M 2181 2772 
Q 1834 2772 1640 2515 
Q 1447 2259 1447 1791 
Q 1447 1309 1634 1061 
Q 1822 813 2181 813 
Q 2531 813 2725 1069 
Q 2919 1325 2919 1791 
Q 2919 2259 2725 2515 
Q 2531 2772 2181 2772 
z
" transform="scale(0.015625)"/>
       <path id="DejaVuSans-Bold-20" transform="scale(0.015625)"/>
       <path id="DejaVuSans-Bold-66" d="M 2841 4863 
L 2841 4128 
L 2222 4128 
Q 1984 4128 1890 4042 
Q 1797 3956 1797 3744 
L 1797 3500 
L 2753 3500 
L 2753 2700 
L 1797 2700 
L 1797 0 
L 678 0 
L 678 2700 
L 122 2700 
L 122 3500 
L 678 3500 
L 678 3744 
Q 678 4316 997 4589 
Q 1316 4863 1984 4863 
L 2841 4863 
z
" transform="scale(0.015625)"/>
       <path id="DejaVuSans-Bold-72" d="M 3138 2547 
Q 2991 2616 2845 2648 
Q 2700 2681 2553 2681 
Q 2122 2681 1889 2404 
Q 1656 2128 1656 1613 
L 1656 0 
L 538 0 
L 538 3500 
L 1656 3500 
L 1656 2925 
Q 1872 3269 2151 3426 
Q 2431 3584 2822 3584 
Q 2878 3584 2943 3579 
Q 3009 3575 3134 3559 
L 3138 2547 
z
" transform="scale(0.015625)"/>
       <path id="DejaVuSans-Bold-42" d="M 2456 2859 
Q 2741 2859 2887 2984 
Q 3034 3109 3034 3353 
Q 3034 3594 2887 3720 
Q 2741 3847 2456 3847 
L 1791 3847 
L 1791 2859 
L 2456 2859 
z
M 2497 819 
Q 2859 819 3042 972 
Q 3225 1125 3225 1434 
Q 3225 1738 3044 1889 
Q 2863 2041 2497 2041 
L 1791 2041 
L 1791 819 
L 2497 819 
z
M 3616 2497 
Q 4003 2384 4215 2081 
Q 4428 1778 4428 1338 
Q 4428 663 3972 331 
Q 3516 0 2584 0 
L 588 0 
L 588 4666 
L 2394 4666 
Q 3366 4666 3802 4372 
Q 4238 4078 4238 3431 
Q 4238 3091 4078 2852 
Q 3919 2613 3616 2497 
z
" transform="scale(0.015625)"/>
       <path id="DejaVuSans-Bold-73" d="M 3272 3391 
L 3272 2541 
Q 2913 2691 2578 2766 
Q 2244 2841 1947 2841 
Q 1628 2841 1473 2761 
Q 1319 2681 1319 2516 
Q 1319 2381 1436 2309 
Q 1553 2238 1856 2203 
L 2053 2175 
Q 2913 2066 3209 1816 
Q 3506 1566 3506 1031 
Q 3506 472 3093 190 
Q 2681 -91 1863 -91 
Q 1516 -91 1145 -36 
Q 775 19 384 128 
L 384 978 
Q 719 816 1070 734 
Q 1422 653 1784 653 
Q 2113 653 2278 743 
Q 2444 834 2444 1013 
Q 2444 1163 2330 1236 
Q 2216 1309 1875 1350 
L 1678 1375 
Q 931 1469 631 1722 
Q 331 1975 331 2491 
Q 331 3047 712 3315 
Q 1094 3584 1881 3584 
Q 2191 3584 2531 3537 
Q 2872 3491 3272 3391 
z
" transform="scale(0.015625)"/>
       <path id="DejaVuSans-Bold-6c" d="M 538 4863 
L 1656 4863 
L 1656 0 
L 538 0 
L 538 4863 
z
" transform="scale(0.015625)"/>
       <path id="DejaVuSans-Bold-28" d="M 2413 -844 
L 1484 -844 
Q 1006 -72 778 623 
Q 550 1319 550 2003 
Q 550 2688 779 3389 
Q 1009 4091 1484 4856 
L 2413 4856 
Q 2013 4116 1813 3408 
Q 1613 2700 1613 2009 
Q 1613 1319 1811 609 
Q 2009 -100 2413 -844 
z
" transform="scale(0.015625)"/>
       <path id="DejaVuSans-Bold-25" d="M 4959 1925 
Q 4738 1925 4616 1733 
Q 4494 1541 4494 1184 
Q 4494 825 4614 633 
Q 4734 441 4959 441 
Q 5184 441 5303 633 
Q 5422 825 5422 1184 
Q 5422 1541 5301 1733 
Q 5181 1925 4959 1925 
z
M 4959 2450 
Q 5541 2450 5875 2112 
Q 6209 1775 6209 1184 
Q 6209 594 5875 251 
Q 5541 -91 4959 -91 
Q 4378 -91 4042 251 
Q 3706 594 3706 1184 
Q 3706 1772 4042 2111 
Q 4378 2450 4959 2450 
z
M 2094 -91 
L 1403 -91 
L 4319 4750 
L 5013 4750 
L 2094 -91 
z
M 1453 4750 
Q 2034 4750 2367 4411 
Q 2700 4072 2700 3481 
Q 2700 2891 2367 2550 
Q 2034 2209 1453 2209 
Q 872 2209 539 2550 
Q 206 2891 206 3481 
Q 206 4072 539 4411 
Q 872 4750 1453 4750 
z
M 1453 4225 
Q 1228 4225 1106 4031 
Q 984 3838 984 3481 
Q 984 3122 1106 2926 
Q 1228 2731 1453 2731 
Q 1678 2731 1798 2926 
Q 1919 3122 1919 3481 
Q 1919 3838 1797 4031 
Q 1675 4225 1453 4225 
z
" transform="scale(0.015625)"/>
       <path id="DejaVuSans-Bold-29" d="M 513 -844 
Q 913 -100 1113 609 
Q 1313 1319 1313 2009 
Q 1313 2700 1113 3408 
Q 913 4116 513 4856 
L 1441 4856 
Q 1916 4091 2145 3389 
Q 2375 2688 2375 2003 
Q 2375 1319 2147 623 
Q 1919 -72 1441 -844 
L 513 -844 
z
" transform="scale(0.015625)"/>
      </defs>
      <use xlink:href="#DejaVuSans-Bold-43"/>
      <use xlink:href="#DejaVuSans-Bold-68" x="73.388672"/>
      <use xlink:href="#DejaVuSans-Bold-61" x="144.580078"/>
      <use xlink:href="#DejaVuSans-Bold-6e" x="212.060547"/>
      <use xlink:href="#DejaVuSans-Bold-67" x="283.251953"/>
      <use xlink:href="#DejaVuSans-Bold-65" x="354.833984"/>
      <use xlink:href="#DejaVuSans-Bold-20" x="422.65625"/>
      <use xlink:href="#DejaVuSans-Bold-66" x="457.470703"/>
      <use xlink:href="#DejaVuSans-Bold-72" x="500.976562"/>
      <use xlink:href="#DejaVuSans-Bold-6f" x="550.292969"/>
      <use xlink:href="#DejaVuSans-Bold-6d" x="618.994141"/>
      <use xlink:href="#DejaVuSans-Bold-20" x="723.193359"/>
      <use xlink:href="#DejaVuSans-Bold-42" x="758.007812"/>
      <use xlink:href="#DejaVuSans-Bold-61" x="834.228516"/>
      <use xlink:href="#DejaVuSans-Bold-73" x="901.708984"/>
      <use xlink:href="#DejaVuSans-Bold-65" x="961.230469"/>
      <use xlink:href="#DejaVuSans-Bold-6c" x="1029.052734"/>
      <use xlink:href="#DejaVuSans-Bold-69" x="1063.330078"/>
      <use xlink:href="#DejaVuSans-Bold-6e" x="1097.607422"/>
      <use xlink:href="#DejaVuSans-Bold-65" x="1168.798828"/>
      <use xlink:href="#DejaVuSans-Bold-20" x="1236.621094"/>
      <use xlink:href="#DejaVuSans-Bold-28" x="1271.435547"/>
      <use xlink:href="#DejaVuSans-Bold-25" x="1317.138672"/>
      <use xlink:href="#DejaVuSans-Bold-29" x="1417.333984"/>
     </g>
    </g>
   </g>
   <g id="line2d_27">
    <path d="M 76.326094 46.984948 
L 132.126094 211.251615 
L 187.926094 211.251615 
L 243.726094 211.251615 
L 299.526094 211.251615 
L 355.326094 183.873837 
" clip-path="url(#p860a6e927f)" style="fill: none; stroke: #ffffb3; stroke-opacity: 0.85; stroke-width: 2; stroke-linecap: square"/>
    <defs>
     <path id="md4ed6dc637" d="M -3.5 3.5 
L 3.5 3.5 
L 3.5 -3.5 
L -3.5 -3.5 
z
" style="stroke: #000000; stroke-opacity: 0.85; stroke-linejoin: miter"/>
    </defs>
    <g clip-path="url(#p860a6e927f)">
     <use xlink:href="#md4ed6dc637" x="76.326094" y="46.984948" style="fill: #ffffb3; fill-opacity: 0.85; stroke: #000000; stroke-opacity: 0.85; stroke-linejoin: miter"/>
     <use xlink:href="#md4ed6dc637" x="132.126094" y="211.251615" style="fill: #ffffb3; fill-opacity: 0.85; stroke: #000000; stroke-opacity: 0.85; stroke-linejoin: miter"/>
     <use xlink:href="#md4ed6dc637" x="187.926094" y="211.251615" style="fill: #ffffb3; fill-opacity: 0.85; stroke: #000000; stroke-opacity: 0.85; stroke-linejoin: miter"/>
     <use xlink:href="#md4ed6dc637" x="243.726094" y="211.251615" style="fill: #ffffb3; fill-opacity: 0.85; stroke: #000000; stroke-opacity: 0.85; stroke-linejoin: miter"/>
     <use xlink:href="#md4ed6dc637" x="299.526094" y="211.251615" style="fill: #ffffb3; fill-opacity: 0.85; stroke: #000000; stroke-opacity: 0.85; stroke-linejoin: miter"/>
     <use xlink:href="#md4ed6dc637" x="355.326094" y="183.873837" style="fill: #ffffb3; fill-opacity: 0.85; stroke: #000000; stroke-opacity: 0.85; stroke-linejoin: miter"/>
    </g>
   </g>
   <g id="line2d_28">
    <path d="M 76.326094 46.984948 
L 132.126094 115.648415 
L 187.926094 115.648415 
L 299.526094 154.488355 
" clip-path="url(#p860a6e927f)" style="fill: none; stroke-dasharray: 2,3.3; stroke-dashoffset: 0; stroke: #b3de69; stroke-opacity: 0.85; stroke-width: 2"/>
    <defs>
     <path id="m3810bec17b" d="M -3.5 3.5 
L 3.5 3.5 
L 3.5 -3.5 
L -3.5 -3.5 
z
" style="stroke: #000000; stroke-opacity: 0.85; stroke-linejoin: miter"/>
    </defs>
    <g clip-path="url(#p860a6e927f)">
     <use xlink:href="#m3810bec17b" x="76.326094" y="46.984948" style="fill: #b3de69; fill-opacity: 0.85; stroke: #000000; stroke-opacity: 0.85; stroke-linejoin: miter"/>
     <use xlink:href="#m3810bec17b" x="132.126094" y="115.648415" style="fill: #b3de69; fill-opacity: 0.85; stroke: #000000; stroke-opacity: 0.85; stroke-linejoin: miter"/>
     <use xlink:href="#m3810bec17b" x="187.926094" y="115.648415" style="fill: #b3de69; fill-opacity: 0.85; stroke: #000000; stroke-opacity: 0.85; stroke-linejoin: miter"/>
     <use xlink:href="#m3810bec17b" x="299.526094" y="154.488355" style="fill: #b3de69; fill-opacity: 0.85; stroke: #000000; stroke-opacity: 0.85; stroke-linejoin: miter"/>
    </g>
   </g>
   <g id="line2d_29">
    <path d="M 48.426094 46.984948 
L 383.226094 46.984948 
" clip-path="url(#p860a6e927f)" style="fill: none; stroke: #000000; stroke-opacity: 0.4; stroke-width: 2; stroke-linecap: square"/>
   </g>
   <g id="patch_3">
    <path d="M 48.426094 227.678281 
L 48.426094 30.558281 
" style="fill: none; stroke: #000000; stroke-width: 1.2; stroke-linejoin: miter; stroke-linecap: square"/>
   </g>
   <g id="patch_4">
    <path d="M 48.426094 227.678281 
L 383.226094 227.678281 
" style="fill: none; stroke: #000000; stroke-width: 1.2; stroke-linejoin: miter; stroke-linecap: square"/>
   </g>
   <g id="text_16">
    <!-- Patient 1 Lesion Trajectories -->
    <g transform="translate(127.323359 15.558281) scale(0.11 -0.11)">
     <defs>
      <path id="DejaVuSans-Bold-50" d="M 588 4666 
L 2584 4666 
Q 3475 4666 3951 4270 
Q 4428 3875 4428 3144 
Q 4428 2409 3951 2014 
Q 3475 1619 2584 1619 
L 1791 1619 
L 1791 0 
L 588 0 
L 588 4666 
z
M 1791 3794 
L 1791 2491 
L 2456 2491 
Q 2806 2491 2997 2661 
Q 3188 2831 3188 3144 
Q 3188 3456 2997 3625 
Q 2806 3794 2456 3794 
L 1791 3794 
z
" transform="scale(0.015625)"/>
      <path id="DejaVuSans-Bold-31" d="M 750 831 
L 1813 831 
L 1813 3847 
L 722 3622 
L 722 4441 
L 1806 4666 
L 2950 4666 
L 2950 831 
L 4013 831 
L 4013 0 
L 750 0 
L 750 831 
z
" transform="scale(0.015625)"/>
      <path id="DejaVuSans-Bold-4c" d="M 588 4666 
L 1791 4666 
L 1791 909 
L 3903 909 
L 3903 0 
L 588 0 
L 588 4666 
z
" transform="scale(0.015625)"/>
      <path id="DejaVuSans-Bold-6a" d="M 538 3500 
L 1656 3500 
L 1656 63 
Q 1656 -641 1318 -1011 
Q 981 -1381 341 -1381 
L -213 -1381 
L -213 -647 
L -19 -647 
Q 300 -647 419 -503 
Q 538 -359 538 63 
L 538 3500 
z
M 538 4863 
L 1656 4863 
L 1656 3950 
L 538 3950 
L 538 4863 
z
" transform="scale(0.015625)"/>
      <path id="DejaVuSans-Bold-63" d="M 3366 3391 
L 3366 2478 
Q 3138 2634 2908 2709 
Q 2678 2784 2431 2784 
Q 1963 2784 1702 2511 
Q 1441 2238 1441 1747 
Q 1441 1256 1702 982 
Q 1963 709 2431 709 
Q 2694 709 2930 787 
Q 3166 866 3366 1019 
L 3366 103 
Q 3103 6 2833 -42 
Q 2563 -91 2291 -91 
Q 1344 -91 809 395 
Q 275 881 275 1747 
Q 275 2613 809 3098 
Q 1344 3584 2291 3584 
Q 2566 3584 2833 3536 
Q 3100 3488 3366 3391 
z
" transform="scale(0.015625)"/>
     </defs>
     <use xlink:href="#DejaVuSans-Bold-50"/>
     <use xlink:href="#DejaVuSans-Bold-61" x="70.666016"/>
     <use xlink:href="#DejaVuSans-Bold-74" x="138.146484"/>
     <use xlink:href="#DejaVuSans-Bold-69" x="185.949219"/>
     <use xlink:href="#DejaVuSans-Bold-65" x="220.226562"/>
     <use xlink:href="#DejaVuSans-Bold-6e" x="288.048828"/>
     <use xlink:href="#DejaVuSans-Bold-74" x="359.240234"/>
     <use xlink:href="#DejaVuSans-Bold-20" x="407.042969"/>
     <use xlink:href="#DejaVuSans-Bold-31" x="441.857422"/>
     <use xlink:href="#DejaVuSans-Bold-20" x="511.4375"/>
     <use xlink:href="#DejaVuSans-Bold-4c" x="546.251953"/>
     <use xlink:href="#DejaVuSans-Bold-65" x="609.972656"/>
     <use xlink:href="#DejaVuSans-Bold-73" x="677.794922"/>
     <use xlink:href="#DejaVuSans-Bold-69" x="737.316406"/>
     <use xlink:href="#DejaVuSans-Bold-6f" x="771.59375"/>
     <use xlink:href="#DejaVuSans-Bold-6e" x="840.294922"/>
     <use xlink:href="#DejaVuSans-Bold-20" x="911.486328"/>
     <use xlink:href="#DejaVuSans-Bold-54" x="946.300781"/>
     <use xlink:href="#DejaVuSans-Bold-72" x="1003.513672"/>
     <use xlink:href="#DejaVuSans-Bold-61" x="1052.830078"/>
     <use xlink:href="#DejaVuSans-Bold-6a" x="1120.310547"/>
     <use xlink:href="#DejaVuSans-Bold-65" x="1154.587891"/>
     <use xlink:href="#DejaVuSans-Bold-63" x="1222.410156"/>
     <use xlink:href="#DejaVuSans-Bold-74" x="1281.6875"/>
     <use xlink:href="#DejaVuSans-Bold-6f" x="1329.490234"/>
     <use xlink:href="#DejaVuSans-Bold-72" x="1398.191406"/>
     <use xlink:href="#DejaVuSans-Bold-69" x="1447.507812"/>
     <use xlink:href="#DejaVuSans-Bold-65" x="1481.785156"/>
     <use xlink:href="#DejaVuSans-Bold-73" x="1549.607422"/>
    </g>
   </g>
   <g id="PathCollection_1">
    <defs>
     <path id="mfa8eeb1d0e" d="M -3.535534 3.535534 
L 3.535534 3.535534 
L 3.535534 -3.535534 
L -3.535534 -3.535534 
z
" style="stroke: #000000; stroke-opacity: 0.85; stroke-width: 2"/>
    </defs>
    <g clip-path="url(#p860a6e927f)">
     <use xlink:href="#mfa8eeb1d0e" x="76.326094" y="46.984948" style="fill: #8dd3c7; fill-opacity: 0.85; stroke: #000000; stroke-opacity: 0.85; stroke-width: 2"/>
    </g>
   </g>
   <g id="PathCollection_2">
    <defs>
     <path id="mcd6ab4eda2" d="M -3.535534 3.535534 
L 3.535534 3.535534 
L 3.535534 -3.535534 
L -3.535534 -3.535534 
z
" style="stroke: #000000; stroke-opacity: 0.85; stroke-width: 2"/>
    </defs>
    <g clip-path="url(#p860a6e927f)">
     <use xlink:href="#mcd6ab4eda2" x="76.326094" y="46.984948" style="fill: #bebada; fill-opacity: 0.85; stroke: #000000; stroke-opacity: 0.85; stroke-width: 2"/>
    </g>
   </g>
   <g id="PathCollection_3">
    <defs>
     <path id="m9e781d9f01" d="M -3.535534 3.535534 
L 3.535534 3.535534 
L 3.535534 -3.535534 
L -3.535534 -3.535534 
z
" style="stroke: #000000; stroke-opacity: 0.85; stroke-width: 2"/>
    </defs>
    <g clip-path="url(#p860a6e927f)">
     <use xlink:href="#m9e781d9f01" x="299.526094" y="46.984948" style="fill: #fb8072; fill-opacity: 0.85; stroke: #000000; stroke-opacity: 0.85; stroke-width: 2"/>
    </g>
   </g>
   <g id="PathCollection_4">
    <defs>
     <path id="mde28dfff74" d="M -3.535534 3.535534 
L 3.535534 3.535534 
L 3.535534 -3.535534 
L -3.535534 -3.535534 
z
" style="stroke: #000000; stroke-opacity: 0.85; stroke-width: 2"/>
    </defs>
    <g clip-path="url(#p860a6e927f)">
     <use xlink:href="#mde28dfff74" x="243.726094" y="46.984948" style="fill: #80b1d3; fill-opacity: 0.85; stroke: #000000; stroke-opacity: 0.85; stroke-width: 2"/>
    </g>
   </g>
   <g id="PathCollection_5">
    <defs>
     <path id="m4cf7f857df" d="M -3.535534 3.535534 
L 3.535534 3.535534 
L 3.535534 -3.535534 
L -3.535534 -3.535534 
z
" style="stroke: #000000; stroke-opacity: 0.85; stroke-width: 2"/>
    </defs>
    <g clip-path="url(#p860a6e927f)">
     <use xlink:href="#m4cf7f857df" x="76.326094" y="46.984948" style="fill: #fdb462; fill-opacity: 0.85; stroke: #000000; stroke-opacity: 0.85; stroke-width: 2"/>
    </g>
   </g>
  </g>
  <g id="axes_2">
   <g id="legend_1">
    <g id="patch_5">
     <path d="M 29.607969 303.932031 
L 406.044219 303.932031 
Q 407.644219 303.932031 407.644219 302.332031 
L 407.644219 267.904531 
Q 407.644219 266.304531 406.044219 266.304531 
L 29.607969 266.304531 
Q 28.007969 266.304531 28.007969 267.904531 
L 28.007969 302.332031 
Q 28.007969 303.932031 29.607969 303.932031 
z
" style="fill: #4d4d4d; opacity: 0.5; stroke: #4d4d4d; stroke-linejoin: miter"/>
    </g>
    <g id="patch_6">
     <path d="M 27.607969 301.932031 
L 404.044219 301.932031 
Q 405.644219 301.932031 405.644219 300.332031 
L 405.644219 265.904531 
Q 405.644219 264.304531 404.044219 264.304531 
L 27.607969 264.304531 
Q 26.007969 264.304531 26.007969 265.904531 
L 26.007969 300.332031 
Q 26.007969 301.932031 27.607969 301.932031 
z
" style="fill: #ffffff; stroke: #cccccc; stroke-linejoin: miter"/>
    </g>
    <g id="PathCollection_6">
     <g>
      <use xlink:href="#mfa8eeb1d0e" x="37.207969" y="271.483281" style="fill: #8dd3c7; fill-opacity: 0.85; stroke: #000000; stroke-opacity: 0.85; stroke-width: 2"/>
     </g>
    </g>
    <g id="text_17">
     <!-- Cervical Lymph Node 3 -->
     <g transform="translate(51.607969 273.583281) scale(0.08 -0.08)">
      <defs>
       <path id="DejaVuSans-43" d="M 4122 4306 
L 4122 3641 
Q 3803 3938 3442 4084 
Q 3081 4231 2675 4231 
Q 1875 4231 1450 3742 
Q 1025 3253 1025 2328 
Q 1025 1406 1450 917 
Q 1875 428 2675 428 
Q 3081 428 3442 575 
Q 3803 722 4122 1019 
L 4122 359 
Q 3791 134 3420 21 
Q 3050 -91 2638 -91 
Q 1578 -91 968 557 
Q 359 1206 359 2328 
Q 359 3453 968 4101 
Q 1578 4750 2638 4750 
Q 3056 4750 3426 4639 
Q 3797 4528 4122 4306 
z
" transform="scale(0.015625)"/>
       <path id="DejaVuSans-65" d="M 3597 1894 
L 3597 1613 
L 953 1613 
Q 991 1019 1311 708 
Q 1631 397 2203 397 
Q 2534 397 2845 478 
Q 3156 559 3463 722 
L 3463 178 
Q 3153 47 2828 -22 
Q 2503 -91 2169 -91 
Q 1331 -91 842 396 
Q 353 884 353 1716 
Q 353 2575 817 3079 
Q 1281 3584 2069 3584 
Q 2775 3584 3186 3129 
Q 3597 2675 3597 1894 
z
M 3022 2063 
Q 3016 2534 2758 2815 
Q 2500 3097 2075 3097 
Q 1594 3097 1305 2825 
Q 1016 2553 972 2059 
L 3022 2063 
z
" transform="scale(0.015625)"/>
       <path id="DejaVuSans-72" d="M 2631 2963 
Q 2534 3019 2420 3045 
Q 2306 3072 2169 3072 
Q 1681 3072 1420 2755 
Q 1159 2438 1159 1844 
L 1159 0 
L 581 0 
L 581 3500 
L 1159 3500 
L 1159 2956 
Q 1341 3275 1631 3429 
Q 1922 3584 2338 3584 
Q 2397 3584 2469 3576 
Q 2541 3569 2628 3553 
L 2631 2963 
z
" transform="scale(0.015625)"/>
       <path id="DejaVuSans-76" d="M 191 3500 
L 800 3500 
L 1894 563 
L 2988 3500 
L 3597 3500 
L 2284 0 
L 1503 0 
L 191 3500 
z
" transform="scale(0.015625)"/>
       <path id="DejaVuSans-69" d="M 603 3500 
L 1178 3500 
L 1178 0 
L 603 0 
L 603 3500 
z
M 603 4863 
L 1178 4863 
L 1178 4134 
L 603 4134 
L 603 4863 
z
" transform="scale(0.015625)"/>
       <path id="DejaVuSans-63" d="M 3122 3366 
L 3122 2828 
Q 2878 2963 2633 3030 
Q 2388 3097 2138 3097 
Q 1578 3097 1268 2742 
Q 959 2388 959 1747 
Q 959 1106 1268 751 
Q 1578 397 2138 397 
Q 2388 397 2633 464 
Q 2878 531 3122 666 
L 3122 134 
Q 2881 22 2623 -34 
Q 2366 -91 2075 -91 
Q 1284 -91 818 406 
Q 353 903 353 1747 
Q 353 2603 823 3093 
Q 1294 3584 2113 3584 
Q 2378 3584 2631 3529 
Q 2884 3475 3122 3366 
z
" transform="scale(0.015625)"/>
       <path id="DejaVuSans-61" d="M 2194 1759 
Q 1497 1759 1228 1600 
Q 959 1441 959 1056 
Q 959 750 1161 570 
Q 1363 391 1709 391 
Q 2188 391 2477 730 
Q 2766 1069 2766 1631 
L 2766 1759 
L 2194 1759 
z
M 3341 1997 
L 3341 0 
L 2766 0 
L 2766 531 
Q 2569 213 2275 61 
Q 1981 -91 1556 -91 
Q 1019 -91 701 211 
Q 384 513 384 1019 
Q 384 1609 779 1909 
Q 1175 2209 1959 2209 
L 2766 2209 
L 2766 2266 
Q 2766 2663 2505 2880 
Q 2244 3097 1772 3097 
Q 1472 3097 1187 3025 
Q 903 2953 641 2809 
L 641 3341 
Q 956 3463 1253 3523 
Q 1550 3584 1831 3584 
Q 2591 3584 2966 3190 
Q 3341 2797 3341 1997 
z
" transform="scale(0.015625)"/>
       <path id="DejaVuSans-6c" d="M 603 4863 
L 1178 4863 
L 1178 0 
L 603 0 
L 603 4863 
z
" transform="scale(0.015625)"/>
       <path id="DejaVuSans-20" transform="scale(0.015625)"/>
       <path id="DejaVuSans-4c" d="M 628 4666 
L 1259 4666 
L 1259 531 
L 3531 531 
L 3531 0 
L 628 0 
L 628 4666 
z
" transform="scale(0.015625)"/>
       <path id="DejaVuSans-79" d="M 2059 -325 
Q 1816 -950 1584 -1140 
Q 1353 -1331 966 -1331 
L 506 -1331 
L 506 -850 
L 844 -850 
Q 1081 -850 1212 -737 
Q 1344 -625 1503 -206 
L 1606 56 
L 191 3500 
L 800 3500 
L 1894 763 
L 2988 3500 
L 3597 3500 
L 2059 -325 
z
" transform="scale(0.015625)"/>
       <path id="DejaVuSans-6d" d="M 3328 2828 
Q 3544 3216 3844 3400 
Q 4144 3584 4550 3584 
Q 5097 3584 5394 3201 
Q 5691 2819 5691 2113 
L 5691 0 
L 5113 0 
L 5113 2094 
Q 5113 2597 4934 2840 
Q 4756 3084 4391 3084 
Q 3944 3084 3684 2787 
Q 3425 2491 3425 1978 
L 3425 0 
L 2847 0 
L 2847 2094 
Q 2847 2600 2669 2842 
Q 2491 3084 2119 3084 
Q 1678 3084 1418 2786 
Q 1159 2488 1159 1978 
L 1159 0 
L 581 0 
L 581 3500 
L 1159 3500 
L 1159 2956 
Q 1356 3278 1631 3431 
Q 1906 3584 2284 3584 
Q 2666 3584 2933 3390 
Q 3200 3197 3328 2828 
z
" transform="scale(0.015625)"/>
       <path id="DejaVuSans-70" d="M 1159 525 
L 1159 -1331 
L 581 -1331 
L 581 3500 
L 1159 3500 
L 1159 2969 
Q 1341 3281 1617 3432 
Q 1894 3584 2278 3584 
Q 2916 3584 3314 3078 
Q 3713 2572 3713 1747 
Q 3713 922 3314 415 
Q 2916 -91 2278 -91 
Q 1894 -91 1617 61 
Q 1341 213 1159 525 
z
M 3116 1747 
Q 3116 2381 2855 2742 
Q 2594 3103 2138 3103 
Q 1681 3103 1420 2742 
Q 1159 2381 1159 1747 
Q 1159 1113 1420 752 
Q 1681 391 2138 391 
Q 2594 391 2855 752 
Q 3116 1113 3116 1747 
z
" transform="scale(0.015625)"/>
       <path id="DejaVuSans-68" d="M 3513 2113 
L 3513 0 
L 2938 0 
L 2938 2094 
Q 2938 2591 2744 2837 
Q 2550 3084 2163 3084 
Q 1697 3084 1428 2787 
Q 1159 2491 1159 1978 
L 1159 0 
L 581 0 
L 581 4863 
L 1159 4863 
L 1159 2956 
Q 1366 3272 1645 3428 
Q 1925 3584 2291 3584 
Q 2894 3584 3203 3211 
Q 3513 2838 3513 2113 
z
" transform="scale(0.015625)"/>
       <path id="DejaVuSans-4e" d="M 628 4666 
L 1478 4666 
L 3547 763 
L 3547 4666 
L 4159 4666 
L 4159 0 
L 3309 0 
L 1241 3903 
L 1241 0 
L 628 0 
L 628 4666 
z
" transform="scale(0.015625)"/>
       <path id="DejaVuSans-6f" d="M 1959 3097 
Q 1497 3097 1228 2736 
Q 959 2375 959 1747 
Q 959 1119 1226 758 
Q 1494 397 1959 397 
Q 2419 397 2687 759 
Q 2956 1122 2956 1747 
Q 2956 2369 2687 2733 
Q 2419 3097 1959 3097 
z
M 1959 3584 
Q 2709 3584 3137 3096 
Q 3566 2609 3566 1747 
Q 3566 888 3137 398 
Q 2709 -91 1959 -91 
Q 1206 -91 779 398 
Q 353 888 353 1747 
Q 353 2609 779 3096 
Q 1206 3584 1959 3584 
z
" transform="scale(0.015625)"/>
       <path id="DejaVuSans-64" d="M 2906 2969 
L 2906 4863 
L 3481 4863 
L 3481 0 
L 2906 0 
L 2906 525 
Q 2725 213 2448 61 
Q 2172 -91 1784 -91 
Q 1150 -91 751 415 
Q 353 922 353 1747 
Q 353 2572 751 3078 
Q 1150 3584 1784 3584 
Q 2172 3584 2448 3432 
Q 2725 3281 2906 2969 
z
M 947 1747 
Q 947 1113 1208 752 
Q 1469 391 1925 391 
Q 2381 391 2643 752 
Q 2906 1113 2906 1747 
Q 2906 2381 2643 2742 
Q 2381 3103 1925 3103 
Q 1469 3103 1208 2742 
Q 947 2381 947 1747 
z
" transform="scale(0.015625)"/>
      </defs>
      <use xlink:href="#DejaVuSans-43"/>
      <use xlink:href="#DejaVuSans-65" x="69.824219"/>
      <use xlink:href="#DejaVuSans-72" x="131.347656"/>
      <use xlink:href="#DejaVuSans-76" x="172.460938"/>
      <use xlink:href="#DejaVuSans-69" x="231.640625"/>
      <use xlink:href="#DejaVuSans-63" x="259.423828"/>
      <use xlink:href="#DejaVuSans-61" x="314.404297"/>
      <use xlink:href="#DejaVuSans-6c" x="375.683594"/>
      <use xlink:href="#DejaVuSans-20" x="403.466797"/>
      <use xlink:href="#DejaVuSans-4c" x="435.253906"/>
      <use xlink:href="#DejaVuSans-79" x="481.841797"/>
      <use xlink:href="#DejaVuSans-6d" x="541.021484"/>
      <use xlink:href="#DejaVuSans-70" x="638.433594"/>
      <use xlink:href="#DejaVuSans-68" x="701.910156"/>
      <use xlink:href="#DejaVuSans-20" x="765.289062"/>
      <use xlink:href="#DejaVuSans-4e" x="797.076172"/>
      <use xlink:href="#DejaVuSans-6f" x="871.880859"/>
      <use xlink:href="#DejaVuSans-64" x="933.0625"/>
      <use xlink:href="#DejaVuSans-65" x="996.539062"/>
      <use xlink:href="#DejaVuSans-20" x="1058.0625"/>
      <use xlink:href="#DejaVuSans-33" x="1089.849609"/>
     </g>
    </g>
    <g id="line2d_30">
     <path d="M 29.207969 282.525781 
L 37.207969 282.525781 
L 45.207969 282.525781 
" style="fill: none; stroke: #ffffb3; stroke-opacity: 0.85; stroke-width: 2; stroke-linecap: square"/>
     <g>
      <use xlink:href="#md4ed6dc637" x="37.207969" y="282.525781" style="fill: #ffffb3; fill-opacity: 0.85; stroke: #000000; stroke-opacity: 0.85; stroke-linejoin: miter"/>
     </g>
    </g>
    <g id="text_18">
     <!-- Lumbar LN #1 -->
     <g transform="translate(51.607969 285.325781) scale(0.08 -0.08)">
      <defs>
       <path id="DejaVuSans-75" d="M 544 1381 
L 544 3500 
L 1119 3500 
L 1119 1403 
Q 1119 906 1312 657 
Q 1506 409 1894 409 
Q 2359 409 2629 706 
Q 2900 1003 2900 1516 
L 2900 3500 
L 3475 3500 
L 3475 0 
L 2900 0 
L 2900 538 
Q 2691 219 2414 64 
Q 2138 -91 1772 -91 
Q 1169 -91 856 284 
Q 544 659 544 1381 
z
M 1991 3584 
L 1991 3584 
z
" transform="scale(0.015625)"/>
       <path id="DejaVuSans-62" d="M 3116 1747 
Q 3116 2381 2855 2742 
Q 2594 3103 2138 3103 
Q 1681 3103 1420 2742 
Q 1159 2381 1159 1747 
Q 1159 1113 1420 752 
Q 1681 391 2138 391 
Q 2594 391 2855 752 
Q 3116 1113 3116 1747 
z
M 1159 2969 
Q 1341 3281 1617 3432 
Q 1894 3584 2278 3584 
Q 2916 3584 3314 3078 
Q 3713 2572 3713 1747 
Q 3713 922 3314 415 
Q 2916 -91 2278 -91 
Q 1894 -91 1617 61 
Q 1341 213 1159 525 
L 1159 0 
L 581 0 
L 581 4863 
L 1159 4863 
L 1159 2969 
z
" transform="scale(0.015625)"/>
       <path id="DejaVuSans-23" d="M 3272 2816 
L 2363 2816 
L 2100 1772 
L 3016 1772 
L 3272 2816 
z
M 2803 4594 
L 2478 3297 
L 3391 3297 
L 3719 4594 
L 4219 4594 
L 3897 3297 
L 4872 3297 
L 4872 2816 
L 3775 2816 
L 3519 1772 
L 4513 1772 
L 4513 1294 
L 3397 1294 
L 3072 0 
L 2572 0 
L 2894 1294 
L 1978 1294 
L 1656 0 
L 1153 0 
L 1478 1294 
L 494 1294 
L 494 1772 
L 1594 1772 
L 1856 2816 
L 850 2816 
L 850 3297 
L 1978 3297 
L 2297 4594 
L 2803 4594 
z
" transform="scale(0.015625)"/>
      </defs>
      <use xlink:href="#DejaVuSans-4c"/>
      <use xlink:href="#DejaVuSans-75" x="53.962891"/>
      <use xlink:href="#DejaVuSans-6d" x="117.341797"/>
      <use xlink:href="#DejaVuSans-62" x="214.753906"/>
      <use xlink:href="#DejaVuSans-61" x="278.230469"/>
      <use xlink:href="#DejaVuSans-72" x="339.509766"/>
      <use xlink:href="#DejaVuSans-20" x="380.623047"/>
      <use xlink:href="#DejaVuSans-4c" x="412.410156"/>
      <use xlink:href="#DejaVuSans-4e" x="468.123047"/>
      <use xlink:href="#DejaVuSans-20" x="542.927734"/>
      <use xlink:href="#DejaVuSans-23" x="574.714844"/>
      <use xlink:href="#DejaVuSans-31" x="658.503906"/>
     </g>
    </g>
    <g id="PathCollection_7">
     <g>
      <use xlink:href="#mcd6ab4eda2" x="37.207969" y="294.968281" style="fill: #bebada; fill-opacity: 0.85; stroke: #000000; stroke-opacity: 0.85; stroke-width: 2"/>
     </g>
    </g>
    <g id="text_19">
     <!-- Lumbar LN #2 -->
     <g transform="translate(51.607969 297.068281) scale(0.08 -0.08)">
      <use xlink:href="#DejaVuSans-4c"/>
      <use xlink:href="#DejaVuSans-75" x="53.962891"/>
      <use xlink:href="#DejaVuSans-6d" x="117.341797"/>
      <use xlink:href="#DejaVuSans-62" x="214.753906"/>
      <use xlink:href="#DejaVuSans-61" x="278.230469"/>
      <use xlink:href="#DejaVuSans-72" x="339.509766"/>
      <use xlink:href="#DejaVuSans-20" x="380.623047"/>
      <use xlink:href="#DejaVuSans-4c" x="412.410156"/>
      <use xlink:href="#DejaVuSans-4e" x="468.123047"/>
      <use xlink:href="#DejaVuSans-20" x="542.927734"/>
      <use xlink:href="#DejaVuSans-23" x="574.714844"/>
      <use xlink:href="#DejaVuSans-32" x="658.503906"/>
     </g>
    </g>
    <g id="PathCollection_8">
     <g>
      <use xlink:href="#m9e781d9f01" x="167.889219" y="271.483281" style="fill: #fb8072; fill-opacity: 0.85; stroke: #000000; stroke-opacity: 0.85; stroke-width: 2"/>
     </g>
    </g>
    <g id="text_20">
     <!-- Pretracheal Lymph Node 3 -->
     <g transform="translate(182.289219 273.583281) scale(0.08 -0.08)">
      <defs>
       <path id="DejaVuSans-50" d="M 1259 4147 
L 1259 2394 
L 2053 2394 
Q 2494 2394 2734 2622 
Q 2975 2850 2975 3272 
Q 2975 3691 2734 3919 
Q 2494 4147 2053 4147 
L 1259 4147 
z
M 628 4666 
L 2053 4666 
Q 2838 4666 3239 4311 
Q 3641 3956 3641 3272 
Q 3641 2581 3239 2228 
Q 2838 1875 2053 1875 
L 1259 1875 
L 1259 0 
L 628 0 
L 628 4666 
z
" transform="scale(0.015625)"/>
       <path id="DejaVuSans-74" d="M 1172 4494 
L 1172 3500 
L 2356 3500 
L 2356 3053 
L 1172 3053 
L 1172 1153 
Q 1172 725 1289 603 
Q 1406 481 1766 481 
L 2356 481 
L 2356 0 
L 1766 0 
Q 1100 0 847 248 
Q 594 497 594 1153 
L 594 3053 
L 172 3053 
L 172 3500 
L 594 3500 
L 594 4494 
L 1172 4494 
z
" transform="scale(0.015625)"/>
      </defs>
      <use xlink:href="#DejaVuSans-50"/>
      <use xlink:href="#DejaVuSans-72" x="58.552734"/>
      <use xlink:href="#DejaVuSans-65" x="97.416016"/>
      <use xlink:href="#DejaVuSans-74" x="158.939453"/>
      <use xlink:href="#DejaVuSans-72" x="198.148438"/>
      <use xlink:href="#DejaVuSans-61" x="239.261719"/>
      <use xlink:href="#DejaVuSans-63" x="300.541016"/>
      <use xlink:href="#DejaVuSans-68" x="355.521484"/>
      <use xlink:href="#DejaVuSans-65" x="418.900391"/>
      <use xlink:href="#DejaVuSans-61" x="480.423828"/>
      <use xlink:href="#DejaVuSans-6c" x="541.703125"/>
      <use xlink:href="#DejaVuSans-20" x="569.486328"/>
      <use xlink:href="#DejaVuSans-4c" x="601.273438"/>
      <use xlink:href="#DejaVuSans-79" x="647.861328"/>
      <use xlink:href="#DejaVuSans-6d" x="707.041016"/>
      <use xlink:href="#DejaVuSans-70" x="804.453125"/>
      <use xlink:href="#DejaVuSans-68" x="867.929688"/>
      <use xlink:href="#DejaVuSans-20" x="931.308594"/>
      <use xlink:href="#DejaVuSans-4e" x="963.095703"/>
      <use xlink:href="#DejaVuSans-6f" x="1037.900391"/>
      <use xlink:href="#DejaVuSans-64" x="1099.082031"/>
      <use xlink:href="#DejaVuSans-65" x="1162.558594"/>
      <use xlink:href="#DejaVuSans-20" x="1224.082031"/>
      <use xlink:href="#DejaVuSans-33" x="1255.869141"/>
     </g>
    </g>
    <g id="PathCollection_9">
     <g>
      <use xlink:href="#mde28dfff74" x="167.889219" y="283.225781" style="fill: #80b1d3; fill-opacity: 0.85; stroke: #000000; stroke-opacity: 0.85; stroke-width: 2"/>
     </g>
    </g>
    <g id="text_21">
     <!-- Retropharyngeal Lymph Node 3 -->
     <g transform="translate(182.289219 285.325781) scale(0.08 -0.08)">
      <defs>
       <path id="DejaVuSans-52" d="M 2841 2188 
Q 3044 2119 3236 1894 
Q 3428 1669 3622 1275 
L 4263 0 
L 3584 0 
L 2988 1197 
Q 2756 1666 2539 1819 
Q 2322 1972 1947 1972 
L 1259 1972 
L 1259 0 
L 628 0 
L 628 4666 
L 2053 4666 
Q 2853 4666 3247 4331 
Q 3641 3997 3641 3322 
Q 3641 2881 3436 2590 
Q 3231 2300 2841 2188 
z
M 1259 4147 
L 1259 2491 
L 2053 2491 
Q 2509 2491 2742 2702 
Q 2975 2913 2975 3322 
Q 2975 3731 2742 3939 
Q 2509 4147 2053 4147 
L 1259 4147 
z
" transform="scale(0.015625)"/>
       <path id="DejaVuSans-6e" d="M 3513 2113 
L 3513 0 
L 2938 0 
L 2938 2094 
Q 2938 2591 2744 2837 
Q 2550 3084 2163 3084 
Q 1697 3084 1428 2787 
Q 1159 2491 1159 1978 
L 1159 0 
L 581 0 
L 581 3500 
L 1159 3500 
L 1159 2956 
Q 1366 3272 1645 3428 
Q 1925 3584 2291 3584 
Q 2894 3584 3203 3211 
Q 3513 2838 3513 2113 
z
" transform="scale(0.015625)"/>
       <path id="DejaVuSans-67" d="M 2906 1791 
Q 2906 2416 2648 2759 
Q 2391 3103 1925 3103 
Q 1463 3103 1205 2759 
Q 947 2416 947 1791 
Q 947 1169 1205 825 
Q 1463 481 1925 481 
Q 2391 481 2648 825 
Q 2906 1169 2906 1791 
z
M 3481 434 
Q 3481 -459 3084 -895 
Q 2688 -1331 1869 -1331 
Q 1566 -1331 1297 -1286 
Q 1028 -1241 775 -1147 
L 775 -588 
Q 1028 -725 1275 -790 
Q 1522 -856 1778 -856 
Q 2344 -856 2625 -561 
Q 2906 -266 2906 331 
L 2906 616 
Q 2728 306 2450 153 
Q 2172 0 1784 0 
Q 1141 0 747 490 
Q 353 981 353 1791 
Q 353 2603 747 3093 
Q 1141 3584 1784 3584 
Q 2172 3584 2450 3431 
Q 2728 3278 2906 2969 
L 2906 3500 
L 3481 3500 
L 3481 434 
z
" transform="scale(0.015625)"/>
      </defs>
      <use xlink:href="#DejaVuSans-52"/>
      <use xlink:href="#DejaVuSans-65" x="64.982422"/>
      <use xlink:href="#DejaVuSans-74" x="126.505859"/>
      <use xlink:href="#DejaVuSans-72" x="165.714844"/>
      <use xlink:href="#DejaVuSans-6f" x="204.578125"/>
      <use xlink:href="#DejaVuSans-70" x="265.759766"/>
      <use xlink:href="#DejaVuSans-68" x="329.236328"/>
      <use xlink:href="#DejaVuSans-61" x="392.615234"/>
      <use xlink:href="#DejaVuSans-72" x="453.894531"/>
      <use xlink:href="#DejaVuSans-79" x="495.007812"/>
      <use xlink:href="#DejaVuSans-6e" x="554.1875"/>
      <use xlink:href="#DejaVuSans-67" x="617.566406"/>
      <use xlink:href="#DejaVuSans-65" x="681.042969"/>
      <use xlink:href="#DejaVuSans-61" x="742.566406"/>
      <use xlink:href="#DejaVuSans-6c" x="803.845703"/>
      <use xlink:href="#DejaVuSans-20" x="831.628906"/>
      <use xlink:href="#DejaVuSans-4c" x="863.416016"/>
      <use xlink:href="#DejaVuSans-79" x="910.003906"/>
      <use xlink:href="#DejaVuSans-6d" x="969.183594"/>
      <use xlink:href="#DejaVuSans-70" x="1066.595703"/>
      <use xlink:href="#DejaVuSans-68" x="1130.072266"/>
      <use xlink:href="#DejaVuSans-20" x="1193.451172"/>
      <use xlink:href="#DejaVuSans-4e" x="1225.238281"/>
      <use xlink:href="#DejaVuSans-6f" x="1300.042969"/>
      <use xlink:href="#DejaVuSans-64" x="1361.224609"/>
      <use xlink:href="#DejaVuSans-65" x="1424.701172"/>
      <use xlink:href="#DejaVuSans-20" x="1486.224609"/>
      <use xlink:href="#DejaVuSans-33" x="1518.011719"/>
     </g>
    </g>
    <g id="PathCollection_10">
     <g>
      <use xlink:href="#m4cf7f857df" x="332.824219" y="271.483281" style="fill: #fdb462; fill-opacity: 0.85; stroke: #000000; stroke-opacity: 0.85; stroke-width: 2"/>
     </g>
    </g>
    <g id="text_22">
     <!-- R. Lung -->
     <g transform="translate(347.224219 273.583281) scale(0.08 -0.08)">
      <defs>
       <path id="DejaVuSans-2e" d="M 684 794 
L 1344 794 
L 1344 0 
L 684 0 
L 684 794 
z
" transform="scale(0.015625)"/>
      </defs>
      <use xlink:href="#DejaVuSans-52"/>
      <use xlink:href="#DejaVuSans-2e" x="65.857422"/>
      <use xlink:href="#DejaVuSans-20" x="97.644531"/>
      <use xlink:href="#DejaVuSans-4c" x="129.431641"/>
      <use xlink:href="#DejaVuSans-75" x="183.394531"/>
      <use xlink:href="#DejaVuSans-6e" x="246.773438"/>
      <use xlink:href="#DejaVuSans-67" x="310.152344"/>
     </g>
    </g>
    <g id="line2d_31">
     <path d="M 324.824219 282.525781 
L 332.824219 282.525781 
L 340.824219 282.525781 
" style="fill: none; stroke-dasharray: 2,3.3; stroke-dashoffset: 0; stroke: #b3de69; stroke-opacity: 0.85; stroke-width: 2"/>
     <g>
      <use xlink:href="#m3810bec17b" x="332.824219" y="282.525781" style="fill: #b3de69; fill-opacity: 0.85; stroke: #000000; stroke-opacity: 0.85; stroke-linejoin: miter"/>
     </g>
    </g>
    <g id="text_23">
     <!-- Subcarinal LN -->
     <g transform="translate(347.224219 285.325781) scale(0.08 -0.08)">
      <defs>
       <path id="DejaVuSans-53" d="M 3425 4513 
L 3425 3897 
Q 3066 4069 2747 4153 
Q 2428 4238 2131 4238 
Q 1616 4238 1336 4038 
Q 1056 3838 1056 3469 
Q 1056 3159 1242 3001 
Q 1428 2844 1947 2747 
L 2328 2669 
Q 3034 2534 3370 2195 
Q 3706 1856 3706 1288 
Q 3706 609 3251 259 
Q 2797 -91 1919 -91 
Q 1588 -91 1214 -16 
Q 841 59 441 206 
L 441 856 
Q 825 641 1194 531 
Q 1563 422 1919 422 
Q 2459 422 2753 634 
Q 3047 847 3047 1241 
Q 3047 1584 2836 1778 
Q 2625 1972 2144 2069 
L 1759 2144 
Q 1053 2284 737 2584 
Q 422 2884 422 3419 
Q 422 4038 858 4394 
Q 1294 4750 2059 4750 
Q 2388 4750 2728 4690 
Q 3069 4631 3425 4513 
z
" transform="scale(0.015625)"/>
      </defs>
      <use xlink:href="#DejaVuSans-53"/>
      <use xlink:href="#DejaVuSans-75" x="63.476562"/>
      <use xlink:href="#DejaVuSans-62" x="126.855469"/>
      <use xlink:href="#DejaVuSans-63" x="190.332031"/>
      <use xlink:href="#DejaVuSans-61" x="245.3125"/>
      <use xlink:href="#DejaVuSans-72" x="306.591797"/>
      <use xlink:href="#DejaVuSans-69" x="347.705078"/>
      <use xlink:href="#DejaVuSans-6e" x="375.488281"/>
      <use xlink:href="#DejaVuSans-61" x="438.867188"/>
      <use xlink:href="#DejaVuSans-6c" x="500.146484"/>
      <use xlink:href="#DejaVuSans-20" x="527.929688"/>
      <use xlink:href="#DejaVuSans-4c" x="559.716797"/>
      <use xlink:href="#DejaVuSans-4e" x="615.429688"/>
     </g>
    </g>
   </g>
  </g>
 </g>
 <defs>
  <clipPath id="p860a6e927f">
   <rect x="48.426094" y="30.558281" width="334.8" height="197.12"/>
  </clipPath>
 </defs>
</svg>
